<svg width="322" height="82" viewBox="0 0 322 82" fill="none" xmlns="http://www.w3.org/2000/svg">
<path d="M80.2235 21.5628C80.2001 21.4828 80.1722 21.4043 80.1399 21.3277C80.0877 21.1888 80.025 21.0498 79.9624 20.9216C79.9117 20.8396 79.8559 20.7611 79.7952 20.6865C79.7166 20.5728 79.6293 20.4656 79.5341 20.366L79.3043 20.1736L79.085 20.0026L78.9701 19.9492C78.944 19.9208 78.9118 19.8989 78.8761 19.8851L48.3775 4.28385C45.95 3.05544 43.2783 2.41638 40.5701 2.41638C37.8619 2.41638 35.1901 3.05544 32.7627 4.28385L2.29539 19.8744L2.20139 19.9385L2.0865 19.992L1.88805 20.1736C1.81493 20.2377 1.72093 20.3018 1.65826 20.366C1.56312 20.4656 1.47581 20.5728 1.39714 20.6865C1.33325 20.7584 1.27721 20.8373 1.23003 20.9216C1.15602 21.0497 1.09645 21.1859 1.05247 21.3277C1.05247 21.4132 0.979355 21.4773 0.958466 21.5628C0.896406 21.8034 0.864813 22.0512 0.864463 22.3001V48.5123C0.847089 52.5339 1.93201 56.4798 3.99607 59.9024C6.06014 63.3249 9.02068 66.087 12.5417 67.875L39.4055 81.6169C39.5069 81.6642 39.6116 81.7035 39.7188 81.7344L39.9173 81.8092C40.1331 81.8629 40.3535 81.8951 40.5753 81.9054C40.7971 81.8943 41.0174 81.8621 41.2333 81.8092L41.4318 81.7344C41.5394 81.7047 41.6442 81.6654 41.7451 81.6169L68.6089 67.875C72.1311 66.0875 75.0931 63.3258 77.159 59.9034C79.2248 56.481 80.3118 52.5347 80.2966 48.5123V22.268C80.303 22.0307 80.2784 21.7935 80.2235 21.5628V21.5628ZM35.1023 9.07108C36.8031 8.20687 38.6763 7.75715 40.5753 7.75715C42.4743 7.75715 44.3476 8.20687 46.0483 9.07108L71.8677 22.268L49.6518 33.6163L46.0275 35.465C44.3285 36.3291 42.457 36.7787 40.5596 36.7787C38.6623 36.7787 36.7908 36.3291 35.0918 35.465L31.4675 33.6163L14.2128 24.7792L15.9989 24.9502C18.0849 25.1104 20.1797 25.1104 22.2657 24.9502C24.3546 24.7685 26.4436 24.5655 28.5325 24.4372C32.7104 24.2235 36.8883 23.9599 41.0662 23.6465C45.2441 23.2832 49.422 22.9947 53.5999 22.5779C53.6594 22.5688 53.7142 22.5397 53.7558 22.4952C53.7974 22.4507 53.8234 22.3934 53.8297 22.3321C53.8356 22.2629 53.8149 22.1941 53.772 22.1402C53.7291 22.0863 53.6673 22.0517 53.5999 22.0436V22.0436C49.422 21.6162 45.2441 21.2956 41.0662 20.975C36.8883 20.6545 32.7104 20.3553 28.5325 20.1416C26.4436 20.024 24.3546 19.8103 22.2657 19.6286C20.1797 19.4684 18.0849 19.4684 15.9989 19.6286C15.4035 19.6286 14.7977 19.7462 14.2128 19.7996L35.1023 9.07108ZM6.06594 48.5123V26.6065L29.1488 38.4463C31.7904 39.7916 34.0124 41.8648 35.5643 44.4324C37.1163 47.0001 37.9366 49.9601 37.9328 52.979V71.0914C37.4419 70.0228 36.8883 69.0076 36.3765 67.9818C35.455 66.2734 34.4001 64.6438 33.2222 63.1091C32.0106 61.5917 30.7886 60.085 29.6083 58.5249C27.3314 55.4046 25.0057 52.3093 22.6313 49.2389C20.2081 46.1828 17.8685 43.0946 15.3931 40.0812C15.3548 40.0339 15.3022 40.0009 15.2437 39.9873C15.1851 39.9738 15.1237 39.9805 15.0693 40.0064C15.0075 40.0424 14.9619 40.1017 14.9424 40.1716C14.9229 40.2415 14.9309 40.3165 14.9648 40.3804C16.73 43.864 18.61 47.2728 20.4379 50.7456C22.2657 54.2185 24.198 57.5632 26.1407 60.9399C27.1121 62.6282 27.9894 64.37 28.8981 66.1225C29.8058 67.8413 30.854 69.4785 32.0315 71.0166C32.4284 71.5402 32.8567 72.0851 33.2849 72.5553L14.8813 63.1091C12.2211 61.7675 9.98368 59.6871 8.42477 57.1058C6.86587 54.5245 6.04843 51.5465 6.06594 48.5123ZM66.2693 63.1091L43.1969 74.9596V52.979C43.1875 49.9493 44.0098 46.9779 45.5701 44.4029C47.1305 41.8279 49.3662 39.753 52.0227 38.4142L63.2404 32.6546L70.4785 28.9466C69.9876 29.5344 69.5072 30.1221 69.0372 30.7312C67.8248 32.3023 66.7385 33.9712 65.7889 35.7214C64.8593 37.4846 63.9506 39.2584 62.9584 40.9895C60.9808 44.4375 59.0346 47.9068 57.1198 51.3975C55.2606 54.9238 53.3283 58.4073 51.49 61.955C51.4533 62.0151 51.4404 62.0874 51.454 62.1569C51.4676 62.2264 51.5066 62.288 51.5632 62.329C51.5919 62.349 51.6242 62.3629 51.6582 62.37C51.6922 62.3771 51.7273 62.3771 51.7613 62.3701C51.7953 62.3632 51.8277 62.3493 51.8564 62.3294C51.8852 62.3095 51.9097 62.284 51.9287 62.2542C54.4355 59.1767 56.8377 56.0137 59.24 52.8935C61.6423 49.7732 64.0446 46.5782 66.3947 43.3831C67.5645 41.7803 68.8178 40.2415 70.0085 38.6814C71.2333 37.1224 72.3269 35.4602 73.2777 33.7125C73.8835 32.6439 74.4371 31.5005 74.9802 30.3251V48.4909C75.0088 51.517 74.2078 54.4906 72.6681 57.0745C71.1284 59.6583 68.9116 61.749 66.2693 63.1091V63.1091Z" fill="#49A57F"/>
<path d="M100.908 65.4399H113.315V32.776H123.441V21.2597H113.315V18.5104C113.315 14.3604 115.613 12.0606 119.294 12.0606C120.507 12.0556 121.716 12.2126 122.888 12.5274C123.369 12.7047 123.859 12.8548 124.357 12.977V1.47805C123.614 1.30514 122.802 1.11494 121.972 0.838269C120.044 0.359922 118.066 0.110357 116.08 0.0947266C106.887 0.0947266 100.908 5.99117 100.908 16.6601V21.2597H93.9966V32.776H100.908V65.4399Z" fill="#1B1F1D"/>
<path d="M128.037 65.4399H140.461V21.2597H128.037V65.4399ZM127.122 7.46096C127.158 9.31398 127.921 11.0783 129.247 12.3726C130.573 13.6668 132.354 14.3871 134.206 14.3776C136.068 14.392 137.861 13.676 139.202 12.3831C140.542 11.0902 141.323 9.32322 141.377 7.46096C141.341 5.60793 140.577 3.84363 139.252 2.54937C137.926 1.2551 136.145 0.53485 134.293 0.544291C132.432 0.534354 130.641 1.25182 129.302 2.54381C127.962 3.8358 127.18 5.60016 127.122 7.46096V7.46096Z" fill="#1B1F1D"/>
<path d="M145.49 65.44H157.896V42.5286C157.896 35.2488 162.044 31.3927 167.556 31.3927C172.74 31.3927 175.833 37.0125 175.833 42.5286V65.44H188.187V40.0386C188.187 28.5396 180.826 21.1733 171.634 21.1733C166.513 21.3792 161.624 23.3667 157.81 26.7931V26.7931V21.2598H145.403L145.49 65.44Z" fill="#1B1F1D"/>
<path d="M215.835 54.5289C213.607 54.622 211.403 54.0467 209.505 52.8768C207.607 51.707 206.102 49.9961 205.183 47.9638C204.264 45.9315 203.973 43.6707 204.347 41.4717C204.722 39.2726 205.744 37.2358 207.284 35.6229C208.824 34.0099 210.811 32.8944 212.989 32.4196C215.167 31.9448 217.437 32.1325 219.508 32.9584C221.578 33.7844 223.355 35.2109 224.61 37.0549C225.864 38.8988 226.539 41.0759 226.548 43.3066C226.611 44.7549 226.38 46.201 225.871 47.558C225.361 48.915 224.582 50.1548 223.582 51.203C222.581 52.2513 221.379 53.0862 220.048 53.6578C218.716 54.2293 217.283 54.5256 215.835 54.5289V54.5289ZM193.492 43.3066C193.4 47.7432 194.629 52.1069 197.025 55.8413C199.42 59.5758 202.872 62.5118 206.942 64.275C211.011 66.0382 215.513 66.5488 219.873 65.7416C224.234 64.9345 228.255 62.8461 231.425 59.7428C234.595 56.6395 236.769 52.6619 237.671 48.3171C238.573 43.9723 238.161 39.4572 236.489 35.3474C234.816 31.2376 231.959 27.7193 228.28 25.2411C224.602 22.7629 220.269 21.4371 215.835 21.4327C212.932 21.3984 210.05 21.9373 207.356 23.0185C204.661 24.0997 202.206 25.7019 200.131 27.7336C198.056 29.7653 196.401 32.1865 195.262 34.8587C194.123 37.5309 193.522 40.4016 193.492 43.3066V43.3066Z" fill="#1B1F1D"/>
<path d="M297.619 48.8745C297.619 59.5435 303.598 65.4399 312.79 65.4399C314.772 65.4528 316.749 65.2382 318.683 64.8001C319.512 64.5235 320.411 64.3333 321.067 64.0566V53.4741C320.597 53.684 320.104 53.8406 319.599 53.941C318.426 54.2495 317.217 54.4007 316.004 54.3906C312.341 54.3906 310.026 52.0908 310.026 47.9581V32.776H321.136V21.2597H310.026V7.42639H299.001V15.7091C299.001 19.3922 297.273 21.2251 293.938 21.2251H289.809V32.7414H297.619V48.8745Z" fill="#1B1F1D"/>
<path d="M285.247 21.2598H272.858V44.1712C272.858 51.451 268.728 55.3243 263.198 55.3243C258.014 55.3243 254.921 49.7046 254.921 44.1712V21.2598H242.515V46.6612C242.515 58.1775 249.876 65.5264 259.068 65.5264C264.189 65.3312 269.079 63.3491 272.892 59.9239V65.44H285.316L285.247 21.2598Z" fill="#1B1F1D"/>
</svg>
