<svg width="199" height="175" viewBox="0 0 199 175" fill="none" xmlns="http://www.w3.org/2000/svg">
<path fill-rule="evenodd" clip-rule="evenodd" d="M86.7209 76.3635H112.057C121.997 78.5951 129.989 83.3782 134.014 89.4486V107.359C128.387 115.847 115.005 121.818 99.3889 121.818C83.7735 121.818 70.391 115.847 64.7643 107.359V89.4486C68.7892 83.3782 76.7811 78.5951 86.7209 76.3635Z" fill="#B367D6"/>
<path fill-rule="evenodd" clip-rule="evenodd" d="M113.17 120.183C108.904 121.238 104.256 121.818 99.3889 121.818C94.5229 121.818 89.8735 121.238 85.6083 120.183L85.6073 120.12C85.6073 112.508 91.7774 106.338 99.3889 106.338C107.001 106.338 113.171 112.508 113.171 120.12L113.17 120.183Z" fill="#9550BC"/>
<path fill-rule="evenodd" clip-rule="evenodd" d="M99.3889 108.901C105.585 108.901 110.607 113.924 110.607 120.12C110.607 126.315 105.585 131.338 99.3889 131.338C93.1934 131.338 88.1708 126.315 88.1708 120.12C88.1708 113.924 93.1934 108.901 99.3889 108.901Z" fill="#6649C6"/>
<path fill-rule="evenodd" clip-rule="evenodd" d="M100.407 110.303C111.698 110.303 111.698 126.097 100.407 126.097C89.1168 126.097 89.1168 110.303 100.407 110.303Z" fill="#7050DD"/>
<path d="M113.346 22.2488C103.995 21.1063 94.6439 21.1631 85.2924 22.2488C82.0426 16.6201 69.1091 0.986877 63.3196 0.986877C60.8586 0.986877 58.8635 2.98198 58.8635 5.44308L49.7392 73.6777C47.2248 92.4816 79.3203 112.681 99.3889 112.681C119.458 112.681 151.553 92.482 149.039 73.6777L139.915 5.44308C139.915 2.98198 137.92 0.986877 135.458 0.986877C129.669 0.986877 116.596 16.6201 113.346 22.2488Z" fill="url(#paint0_linear_65_125)"/>
<path d="M136.829 96.9565C144.817 90.0784 150.118 81.7503 149.039 73.6777C145.997 50.9327 142.956 28.188 139.915 5.44308C139.915 2.98198 137.92 0.986877 135.458 0.986877C129.669 0.986877 116.596 16.6201 113.346 22.2488C108.43 28.774 103.314 35.8795 99.3889 45.913C96.8352 52.4413 98.2399 59.7544 99.3889 70.0151C99.3889 86.0367 112.617 105.322 136.829 96.9565Z" fill="url(#paint1_linear_65_125)"/>
<path fill-rule="evenodd" clip-rule="evenodd" d="M134.547 13.4683C135.232 18.8267 135.55 20.9518 135.943 25.3058C136.085 26.8775 136.357 27.8581 134.771 27.4389C130.462 26.3001 128.369 25.7454 124.06 24.6065C122.143 24.1 120.649 24.1683 121.774 22.6004C124.656 18.5839 127.641 14.9738 131.724 11.9494C133.753 10.4454 134.242 11.0809 134.547 13.4683ZM64.2311 13.4683C63.5459 18.8267 63.2276 20.9518 62.835 25.3058C62.6933 26.8775 62.4213 27.8581 64.0072 27.4389C68.3158 26.3001 70.4089 25.7454 74.7178 24.6065C76.6345 24.1 78.1292 24.1683 77.004 22.6004C74.1219 18.5839 71.1363 14.9738 67.0544 11.9494C65.0246 10.4454 64.5364 11.0809 64.2311 13.4683Z" fill="#FDFDFD"/>
<path d="M99.3889 104.358C78.1042 104.358 60.8996 89.9599 71.2321 76.9574C76.0403 70.9068 85.7988 66.2217 89.8837 64.2432C99.4916 59.5893 96.7127 47.6395 89.2169 47.6395C88.1491 47.6395 84.4413 47.6302 81.7429 47.6302C74.7654 47.6302 69.3091 46.8267 69.3091 35.6732H72.8504C74.4092 35.6732 74.953 35.6135 74.953 37.2133C74.953 38.5632 75.0672 39.9844 76.2363 40.6682C76.8237 41.0117 77.8026 41.1879 79.2037 41.1986C80.5929 41.2092 86.0417 41.2354 89.9886 41.2354C94.5721 41.2354 97.7287 42.1276 99.3889 45.913C101.049 42.1276 104.206 41.2354 108.79 41.2354C112.737 41.2354 118.185 41.2092 119.574 41.1986C120.976 41.1879 121.954 41.0117 122.542 40.6682C123.711 39.9844 123.825 38.5632 123.825 37.2133C123.825 35.6135 124.369 35.6732 125.928 35.6732H129.469C129.469 46.8267 124.013 47.6302 117.035 47.6302C114.337 47.6302 110.629 47.6395 109.561 47.6395C102.065 47.6395 99.2865 59.5893 108.895 64.2432C112.979 66.2217 122.738 70.9068 127.546 76.9574C137.879 89.9599 120.674 104.358 99.3889 104.358Z" fill="white"/>
<path d="M110.364 75.135C111.398 76.4733 111.245 78.4764 110.025 79.6088C100.408 88.5215 98.3877 88.5373 88.7537 79.6088C87.5331 78.4764 87.3808 76.4733 88.4137 75.135C91.5261 71.7223 107.379 71.861 110.364 75.135Z" fill="#3A2F26"/>
<path fill-rule="evenodd" clip-rule="evenodd" d="M83.267 51.6203C86.2202 51.6203 88.614 54.0142 88.614 56.9676C88.614 59.9208 86.2202 62.3148 83.267 62.3148C80.3137 62.3148 77.9195 59.9208 77.9195 56.9676C77.9195 54.0142 80.3137 51.6203 83.267 51.6203Z" fill="#3A2F26"/>
<path fill-rule="evenodd" clip-rule="evenodd" d="M85.2206 53.6109C85.902 53.6672 86.5783 54.3321 86.7312 55.0959C86.8844 55.8597 86.4561 56.4333 85.7749 56.377C85.0936 56.3207 84.4173 55.6559 84.2642 54.892C84.1113 54.1282 84.5395 53.5546 85.2206 53.6109Z" fill="white"/>
<path fill-rule="evenodd" clip-rule="evenodd" d="M115.511 51.6203C118.465 51.6203 120.858 54.0142 120.858 56.9676C120.858 59.9208 118.465 62.3148 115.511 62.3148C112.558 62.3148 110.164 59.9208 110.164 56.9676C110.164 54.0142 112.558 51.6203 115.511 51.6203Z" fill="#3A2F26"/>
<path fill-rule="evenodd" clip-rule="evenodd" d="M117.465 53.6109C118.147 53.6672 118.823 54.3321 118.976 55.0959C119.129 55.8597 118.701 56.4333 118.019 56.377C117.338 56.3207 116.662 55.6559 116.509 54.892C116.356 54.1282 116.784 53.5546 117.465 53.6109Z" fill="white"/>
<path d="M81.3614 91.5304C81.0265 90.9475 81.2275 90.2031 81.8104 89.8682C82.3933 89.5333 83.138 89.7341 83.4729 90.317C83.9612 91.1631 84.7376 91.8274 85.6169 92.2991C86.6467 92.8513 87.8046 93.132 88.8148 93.132C90.8151 93.132 91.9561 92.339 93.8395 91.6348C99.1574 89.6477 99.4206 89.5753 104.739 91.562C106.622 92.2662 107.963 93.132 109.963 93.132C110.973 93.132 112.131 92.8513 113.161 92.2991C114.041 91.8274 114.817 91.1631 115.305 90.317C115.64 89.7341 116.385 89.5333 116.968 89.8682C117.55 90.2031 117.752 90.9475 117.417 91.5304C116.682 92.8023 115.56 93.7767 114.308 94.4485C112.911 95.1974 111.338 95.5781 109.963 95.5781C107.548 95.5781 105.197 94.6995 103.109 93.9188C99.4544 92.5532 99.3236 92.5532 95.6687 93.9188C93.5808 94.6995 91.2303 95.5781 88.8148 95.5781C87.4399 95.5781 85.867 95.1974 84.4704 94.4485C83.2178 93.7767 82.0957 92.8023 81.3614 91.5304Z" fill="#3A2F26"/>
<path fill-rule="evenodd" clip-rule="evenodd" d="M94.1656 118.974L91.6393 121.5L97.5142 127.375L107.139 117.75L104.612 115.224L97.5142 122.322L94.1656 118.974Z" fill="white"/>
<path d="M0.282104 173.324V140.333H14.2111C14.5377 140.333 14.9733 140.333 15.517 140.369C16.0432 140.387 16.5329 140.442 16.9679 140.514C18.9274 140.823 20.5413 141.475 21.8103 142.455C23.0626 143.452 23.9873 144.704 24.5859 146.209C25.1846 147.715 25.4745 149.384 25.4745 151.234C25.4745 153.084 25.1846 154.752 24.5859 156.257C23.9692 157.762 23.0437 159.014 21.7929 160.012C20.5232 161.009 18.9085 161.644 16.9679 161.953C16.5329 162.025 16.0432 162.061 15.4994 162.097C14.937 162.134 14.5198 162.134 14.2111 162.134H6.5211V173.324H0.282104ZM6.5211 156.33H13.9393C14.2661 156.33 14.6104 156.312 14.9907 156.275C15.3719 156.239 15.717 156.185 16.0432 156.094C16.8778 155.858 17.5301 155.478 17.9838 154.933C18.4556 154.389 18.7637 153.791 18.9448 153.12C19.1266 152.466 19.1993 151.831 19.1993 151.234C19.1993 150.635 19.1266 150 18.9448 149.347C18.7637 148.676 18.4556 148.077 17.9838 147.534C17.5301 146.989 16.8778 146.608 16.0432 146.373C15.717 146.281 15.3719 146.228 14.9907 146.192C14.6104 146.173 14.2661 146.154 13.9393 146.154H6.5211V156.33ZM40.3649 174.013C37.8262 174.013 35.595 173.451 33.6725 172.363C31.7317 171.274 30.2263 169.769 29.1385 167.847C28.0501 165.942 27.4877 163.748 27.4877 161.263C27.4877 158.561 28.0318 156.221 29.1022 154.207C30.1721 152.212 31.6409 150.653 33.5093 149.547C35.3957 148.44 37.5539 147.896 40.002 147.896C42.5963 147.896 44.8084 148.495 46.6228 149.728C48.4361 150.943 49.7783 152.666 50.6492 154.878C51.5191 157.091 51.8278 159.703 51.5742 162.696H48.5629H45.4068H34.1985C34.3983 164.165 34.8697 165.381 35.595 166.287C36.5929 167.557 38.0612 168.191 40.002 168.191C41.2179 168.191 42.2697 167.919 43.1401 167.393C44.011 166.849 44.6634 166.088 45.135 165.072L51.3567 166.868C50.4313 169.116 48.9621 170.876 46.949 172.128C44.9538 173.379 42.7413 174.013 40.3649 174.013ZM45.2619 158.071C45.0806 156.729 44.7357 155.676 44.2103 154.951C43.4123 153.845 42.0876 153.301 40.2745 153.301C38.1525 153.301 36.5929 153.936 35.595 155.223C35.0145 155.967 34.6159 156.91 34.3617 158.071H45.2619ZM55.981 173.324V148.585H61.4766V154.625L60.8781 153.845C61.2046 152.992 61.6403 152.212 62.1663 151.505C62.7101 150.816 63.363 150.236 64.1426 149.765C64.7414 149.401 65.3761 149.111 66.0834 148.912C66.7909 148.694 67.5162 148.567 68.2599 148.513C69.0033 148.458 69.7657 148.495 70.5091 148.585V154.389C69.8195 154.189 69.0222 154.099 68.115 154.171C67.2076 154.244 66.3916 154.462 65.6481 154.806C64.9231 155.151 64.3057 155.586 63.7985 156.148C63.2905 156.711 62.9099 157.364 62.6557 158.107C62.3839 158.869 62.2564 159.721 62.2564 160.683V173.324H55.981ZM103.899 173.324V158.706C103.899 157.073 103.518 155.785 102.738 154.878C101.977 153.972 100.906 153.518 99.546 153.518C98.6759 153.518 97.9142 153.718 97.2794 154.135C96.6445 154.534 96.1365 155.097 95.7922 155.822C95.4292 156.548 95.2479 157.382 95.2479 158.343V173.324H89.009V158.706C89.009 157.073 88.6285 155.785 87.866 154.878C87.0863 153.972 86.0166 153.518 84.6557 153.518C83.3685 153.518 82.3162 153.972 81.5365 154.861C80.7566 155.749 80.3575 156.91 80.3575 158.343V173.324H74.0822V148.585H79.5775V151.288C80.285 150.399 81.174 149.673 82.2256 149.111C83.5859 148.35 85.1093 147.987 86.8137 147.987C88.7546 147.987 90.351 148.403 91.5838 149.22C92.618 149.909 93.4347 150.78 94.0145 151.831C94.7943 150.671 95.8103 149.746 97.0619 149.075C98.4222 148.35 99.9091 147.987 101.559 147.987C104.389 147.987 106.529 148.821 107.962 150.489C109.413 152.158 110.139 154.353 110.139 157.055V173.324H103.899ZM115.815 145.139V139.643H122.037V145.139H115.815ZM115.815 173.324V148.585H122.037V173.324H115.815ZM143.021 173.324C141.298 173.633 139.63 173.778 137.997 173.741C136.347 173.705 134.878 173.415 133.59 172.871C132.302 172.326 131.322 171.457 130.652 170.241C130.034 169.116 129.708 167.973 129.69 166.795C129.654 165.634 129.636 164.31 129.636 162.823V153.392H125.428V148.585H129.636V141.712H135.875V148.585H143.021V153.392H135.875V162.46C135.875 163.422 135.893 164.292 135.911 165.054C135.93 165.834 136.074 166.45 136.365 166.904C136.927 167.774 137.798 168.246 139.013 168.318C140.209 168.409 141.551 168.337 143.021 168.137V173.324ZM148.789 173.324V167.085H155.01V173.324H148.789ZM162.156 145.139V139.643H168.395V145.139H162.156ZM162.156 173.324V148.585H168.395V173.324H162.156ZM185.662 174.013C183.159 174.013 180.982 173.451 179.096 172.326C177.228 171.22 175.758 169.679 174.725 167.72C173.673 165.743 173.147 163.494 173.147 160.955C173.147 158.361 173.691 156.094 174.743 154.135C175.813 152.177 177.3 150.635 179.168 149.547C181.055 148.44 183.213 147.896 185.662 147.896C188.146 147.896 190.341 148.458 192.227 149.564C194.114 150.671 195.582 152.212 196.634 154.171C197.687 156.13 198.212 158.397 198.212 160.955C198.212 163.512 197.686 165.779 196.617 167.738C195.565 169.697 194.077 171.238 192.191 172.345C190.305 173.451 188.128 174.013 185.662 174.013ZM185.662 168.191C187.656 168.191 189.144 167.502 190.141 166.16C191.121 164.8 191.611 163.077 191.611 160.955C191.611 158.742 191.121 157.001 190.124 155.676C189.107 154.371 187.621 153.718 185.662 153.718C184.301 153.718 183.176 154.008 182.307 154.625C181.436 155.242 180.801 156.094 180.383 157.164C179.966 158.252 179.749 159.522 179.749 160.955C179.749 163.167 180.257 164.927 181.254 166.232C182.252 167.539 183.721 168.191 185.662 168.191Z" fill="#2B2B2A"/>
<defs>
<linearGradient id="paint0_linear_65_125" x1="99.3889" y1="111.136" x2="99.3889" y2="0.534277" gradientUnits="userSpaceOnUse">
<stop stop-color="#FBAE75"/>
<stop offset="1" stop-color="#974DF2"/>
</linearGradient>
<linearGradient id="paint1_linear_65_125" x1="123.566" y1="100.553" x2="123.566" y2="1.41218" gradientUnits="userSpaceOnUse">
<stop stop-color="#FFC697"/>
<stop offset="1" stop-color="#BC87E8"/>
</linearGradient>
</defs>
</svg>
